<svg id="circle_bg" data-name="circle bg" xmlns="http://www.w3.org/2000/svg" viewBox="0 0 811.79 422.74"><defs><style>.cls-1,.cls-3{fill:#00a14b;}.cls-2,.cls-7{fill:#ed1c24;}.cls-3{font-size:78.67px;}.cls-10,.cls-3,.cls-7{font-family:MyriadPro-Regular, Myriad Pro;}.cls-4{letter-spacing:-0.01em;}.cls-5{letter-spacing:0em;}.cls-6{letter-spacing:0.01em;}.cls-7{font-size:73.33px;}.cls-8{letter-spacing:-0.01em;}.cls-9{letter-spacing:-0.01em;}.cls-10{font-size:24.22px;fill:#4e4d4d;}.cls-11{letter-spacing:0em;}.cls-12{letter-spacing:-0.01em;}.cls-13{letter-spacing:0em;}.cls-14{letter-spacing:-0.04em;}.cls-15{letter-spacing:-0.07em;}.cls-16{letter-spacing:0.01em;}.cls-17{letter-spacing:0em;}.cls-18{letter-spacing:0em;}.cls-19{letter-spacing:-0.01em;}.cls-20{letter-spacing:0em;}.cls-21{letter-spacing:0.01em;}</style></defs><g id="letter_A" data-name="letter A"><path class="cls-1" d="M316.19,118.35l7.42,10.16c4.38,6.87,11.48,15.71,14.46,19.75,6.07,8.25,23.93,12.63,26.55,13.84l168.26,75.09c6.87,3.13-17.34-27.43-23.46-37.3" transform="translate(-27 -30.96)"/><polygon class="cls-2" points="405.8 7.41 349.91 249.79 305.49 319.38 376.05 0.41 405.8 7.41"/><path class="cls-1" d="M309.2,198.68,325,220.25c.26.35,8.76,12,9,12.29,7.09,8.78,20.86,12.15,23.09,13.27l117.35,45c5.84,2.87,52.77,2.78,45.38-8.55" transform="translate(-27 -30.96)"/><polygon class="cls-2" points="393.29 7.41 449.18 249.79 493.6 319.38 423.04 0.41 393.29 7.41"/><path class="cls-1" d="M344.14,83.45,350.44,66c.1-.11,3.44-3.73,3.57-3.8,3.48-2,20.77,10,23.13,11.25l153.74,78.8c6.21,3.4,22.84,34,20.87,38.6" transform="translate(-27 -30.96)"/><rect class="cls-2" x="375.15" width="45.88" height="34.25"/></g><text class="cls-3" transform="translate(0 385.28) scale(1.4 1)">S<tspan class="cls-4" x="38.78" y="0">M</tspan><tspan class="cls-5" x="101.25" y="0">A</tspan><tspan class="cls-6" x="149.39" y="0">R</tspan><tspan x="192.42" y="0">T</tspan></text><text class="cls-7" transform="translate(337.67 378.85) scale(1.91 1)"><tspan class="cls-8">A</tspan><tspan x="43.78" y="0">GEN</tspan><tspan class="cls-9" x="175.49" y="0">T</tspan><tspan x="211.49" y="0">S</tspan></text><text class="cls-10" transform="translate(220.02 416.68) scale(1.16 1)"><tspan class="cls-11">W</tspan><tspan x="20.37" y="0">he</tspan><tspan class="cls-12" x="45.95" y="0">r</tspan><tspan class="cls-13" x="53.63" y="0">e</tspan><tspan class="cls-14" x="65.76" y="0"> </tspan><tspan class="cls-15" x="69.9" y="0">T</tspan><tspan x="80.22" y="0">echnology </tspan><tspan class="cls-16" x="192.48" y="0">M</tspan><tspan class="cls-17" x="212.1" y="0">eets </tspan><tspan class="cls-18" x="259.12" y="0">C</tspan><tspan class="cls-19" x="273.09" y="0">r</tspan><tspan x="280.77" y="0">e</tspan><tspan class="cls-20" x="292.9" y="0">a</tspan><tspan x="304.48" y="0">tivi</tspan><tspan class="cls-21" x="335.48" y="0">t</tspan><tspan x="343.72" y="0">y </tspan></text></svg>